<svg xmlns="http://www.w3.org/2000/svg" width="16" height="16" viewBox="0 0 16 16">
  <path fill-rule="evenodd" d="M0,8 C0,3.581722 3.581722,0 8,0 C12.418278,0 16,3.581722 16,8 C16,12.418278 12.418278,16 8,16 C3.581722,16 0,12.418278 0,8 Z M8.79999994,3.82417582 C8.79999994,3.36899609 8.44182776,3 8,3 C7.55817224,3 7.20000006,3.36899609 7.20000006,3.82417582 L7.20000006,10.2172807 L5.35929431,8.36308974 C5.04338452,8.04486556 4.53688454,8.05072855 4.22799496,8.3761851 C3.91910538,8.70164165 3.92479639,9.22344798 4.24070619,9.54167216 L7.44070594,12.7651154 C7.75160773,13.0782949 8.24839227,13.0782949 8.55929406,12.7651154 L11.7592938,9.54167216 C12.0752036,9.22344798 12.0808946,8.70164165 11.772005,8.3761851 C11.4631155,8.05072855 10.9566155,8.04486556 10.6407057,8.36308974 L8.79999994,10.2172807 L8.79999994,3.82417582 Z"/>
</svg>
