<svg xmlns="http://www.w3.org/2000/svg" width="16" height="16" viewBox="0 0 16 16">
  <path fill-rule="evenodd" d="M0,8 C0,3.581722 3.581722,0 8,0 C12.418278,0 16,3.581722 16,8 C16,12.418278 12.418278,16 8,16 C3.581722,16 0,12.418278 0,8 Z M8.79999994,12.1758242 L8.79999994,5.78271934 L10.6407057,7.63691026 C10.9566155,7.95513444 11.4631155,7.94927145 11.772005,7.6238149 C12.0808946,7.29835835 12.0752036,6.77655202 11.7592938,6.45832784 L8.55929406,3.23488461 C8.24839227,2.92170513 7.75160773,2.92170513 7.44070594,3.23488461 L4.24070619,6.45832784 C3.92479639,6.77655202 3.91910538,7.29835835 4.22799496,7.6238149 C4.53688454,7.94927145 5.04338452,7.95513444 5.35929431,7.63691026 L7.20000006,5.78271934 L7.20000006,12.1758242 C7.20000006,12.6310039 7.55817224,13 8,13 C8.44182776,13 8.79999994,12.6310039 8.79999994,12.1758242 Z"/>
</svg>
