<svg xmlns="http://www.w3.org/2000/svg" width="16" height="16" viewBox="0 0 16 16">
  <path fill-rule="evenodd" d="M4.22519505,9.61749525 C4.49587469,9.47296393 4.82646273,9.45954967 5.12706935,9.5873139 L5.12706935,9.5873139 L5.246,9.646 L5.36560678,9.72385159 L5.4539858,9.80188925 L8.03012882,12.2945941 L10.5557892,9.78908394 L10.6502327,9.70817551 C10.9128398,9.5095393 11.2575197,9.44881533 11.588508,9.54893243 L11.588508,9.54893243 L11.7118706,9.59368237 L11.8210514,9.64762739 L11.942769,9.73377817 L12.0325531,9.81564819 L12.1149392,9.90981422 C12.3673529,10.2383128 12.39667,10.7050151 12.1720656,11.0724992 L12.1720656,11.0724992 L12.1024174,11.1733829 L11.9945179,11.2913926 L8.72478706,14.4540028 L8.6284818,14.5364951 C8.29450027,14.7889519 7.83747277,14.8154323 7.45521403,14.5919843 L7.45521403,14.5919843 L7.34873107,14.5221646 L7.25933527,14.4433538 L3.98856398,11.2780926 L3.90080682,11.1819221 C3.63193977,10.8473125 3.60056506,10.3793198 3.83441251,9.98881429 L3.83441251,9.98881429 L3.90768274,9.87993285 L4.01625302,9.76554895 L4.11311942,9.68743549 Z M7.37414729,1.45315095 C7.66117693,1.24008816 8.04044752,1.19081431 8.39499701,1.32967626 L8.39499701,1.32967626 L8.51565001,1.38439822 L8.64209704,1.46886493 L8.73735909,1.55204407 L12.0072865,4.71658976 L12.0958966,4.81373713 C12.4212517,5.21891991 12.3974827,5.81202749 12.0208741,6.19002736 C11.727657,6.48432761 11.2924013,6.57234057 10.887898,6.41618055 L10.887898,6.41618055 L10.7655407,6.36130768 L10.6371401,6.27590491 L10.5362635,6.18735883 L8.03013201,3.69856807 L5.44225045,6.20345315 L5.34160791,6.28909917 C5.16613762,6.41992764 4.9533971,6.49058762 4.72428833,6.49216984 L4.72428833,6.49216984 L4.59076052,6.48578326 L4.46741448,6.46610767 L4.3299167,6.42243257 L4.19025195,6.35516861 L4.05322996,6.26092301 L3.96271098,6.17851825 L3.88338612,6.08808823 C3.66390643,5.80407303 3.61219737,5.41069124 3.76380475,5.0472557 L3.76380475,5.0472557 L3.82273926,4.92508377 L3.91263375,4.79857629 L4.00059357,4.70411501 L7.27106342,1.54067955 Z"/>
</svg>
