<svg xmlns="http://www.w3.org/2000/svg" width="16" height="16" viewBox="0 0 16 16">
  <path fill-rule="evenodd" d="M4.81610292,3.90202868 C5.2212857,3.57667355 5.81439328,3.60044258 6.19239315,3.97705119 L6.19239315,3.97705119 L6.28280099,4.07981387 C6.50323735,4.36661206 6.55735525,4.75046873 6.41854634,5.11002722 L6.41854634,5.11002722 L6.36367347,5.23238451 L6.2782707,5.36078518 L6.18972462,5.46166178 L3.70093386,7.96779323 L6.20581894,10.5556748 L6.29146496,10.6563173 C6.42229343,10.8317876 6.49295341,11.0445281 6.49453563,11.2736369 L6.49453563,11.2736369 L6.48814905,11.4071647 L6.46847346,11.5305108 L6.42479836,11.6680085 L6.3575344,11.8076733 L6.2632888,11.9446953 L6.18088404,12.0352143 L6.09045402,12.1145391 C5.80643882,12.3340188 5.41305703,12.3857279 5.04962149,12.2341205 L5.04962149,12.2341205 L4.92744956,12.175186 L4.80094208,12.0852915 L4.7064808,11.9973317 L1.54304534,8.72686182 L1.45551674,8.62377795 C1.24245395,8.33674831 1.1931801,7.95747772 1.33204205,7.60292823 L1.33204205,7.60292823 L1.38676401,7.48227523 L1.47123072,7.3558282 L1.55440986,7.26056615 L4.71895555,3.99063874 Z M9.91218001,3.882986 C10.2078287,3.65581371 10.6154225,3.60934966 10.9618807,3.76606518 L10.9618807,3.76606518 L11.071,3.823 L11.1757487,3.89550789 L11.2937584,4.00340739 L14.4563686,7.27313818 L14.5388609,7.36944344 C14.7913177,7.70342497 14.8177981,8.16045247 14.59435,8.54271121 L14.59435,8.54271121 L14.5245304,8.64919417 L14.4457196,8.73858997 L11.2804584,12.0093613 L11.1842879,12.0971184 C10.8496783,12.3659855 10.3816856,12.3973602 9.99118008,12.1635127 L9.99118008,12.1635127 L9.88229864,12.0902425 L9.76791474,11.9816722 L9.68980128,11.8848058 L9.61986104,11.7727302 C9.45468239,11.463382 9.46075867,11.0757862 9.6531087,10.7441221 L9.6531087,10.7441221 L9.72621738,10.6323185 L9.80425504,10.5439394 L12.2969598,7.96779641 L9.79144973,5.44213602 L9.7105413,5.34769254 C9.51190509,5.08508539 9.45118112,4.74040557 9.55129822,4.40941729 L9.55129822,4.40941729 L9.59604816,4.28605467 L9.64999318,4.17687386 L9.73614396,4.05515625 L9.81801398,3.96537217 Z"/>
</svg>
