<svg xmlns="http://www.w3.org/2000/svg" width="16" height="16" viewBox="0 0 16 16">
  <path fill-rule="evenodd" d="M1.39372574,7.45746728 L1.50455752,7.35336549 C2.04064535,6.90255325 2.83216019,6.93718573 3.32906775,7.45746728 L5.64640442,9.88224653 C5.70039298,9.92834851 5.76585469,9.95232594 5.83339222,9.95232594 C5.87841723,9.95232594 5.92251967,9.9416693 5.96283733,9.92097151 L6.03256912,9.87127354 L12.6711044,2.91865203 C12.9276193,2.64997686 13.2731542,2.5 13.6387754,2.5 C14.0044168,2.5 14.3499925,2.64996438 14.6063339,2.91865203 C15.131213,3.4684134 15.131213,4.35610845 14.6063367,4.9060596 L6.80117567,13.081348 C6.54467808,13.350005 6.19915071,13.5 5.83361712,13.5 C5.46799592,13.5 5.122461,13.3500231 4.86594612,13.081348 L1.39379205,9.44459359 C1.13992981,9.17831284 1,8.82430379 1,8.45205118 C0.999456319,8.07839473 1.13963322,7.72360526 1.39372574,7.45746728 Z"/>
</svg>
