<svg xmlns="http://www.w3.org/2000/svg" width="16" height="16" viewBox="0 0 16 16">
  <path fill-rule="evenodd" d="M13,0 C14.6568542,-3.04359188e-16 16,1.34314575 16,3 L16,13 C16,14.6568542 14.6568542,16 13,16 L3,16 C1.34314575,16 2.02906125e-16,14.6568542 0,13 L0,3 C-2.02906125e-16,1.34314575 1.34314575,3.04359188e-16 3,0 L13,0 Z M12.3663784,4 C12.0346219,4 11.7206642,4.13410523 11.4883877,4.37352626 L6.47124297,9.54465446 L6.46071779,9.54891802 L6.44694603,9.54164736 L4.71174877,7.75307701 C4.22895822,7.25561056 3.43850534,7.25566489 2.9558422,7.75299998 C2.72623561,7.98966904 2.59951256,8.3053091 2.60000141,8.63689742 C2.60000141,8.96696156 2.72648178,9.28185607 2.95571509,9.51848159 L5.5828973,12.2264737 C5.81517372,12.4658948 6.12913146,12.6 6.46088795,12.6 C6.79258198,12.6 7.10653278,12.4658786 7.33879353,12.2264737 L13.244287,6.13924498 C13.7185656,5.65020673 13.7185656,4.8623964 13.244284,4.37352626 C13.0121737,4.13410346 12.6981569,4 12.3663784,4 Z"/>
</svg>
