<svg xmlns="http://www.w3.org/2000/svg" width="16" height="16" viewBox="0 0 16 16">
  <path fill-rule="evenodd" d="M12.1798844,12.7881576 C12.695608,13.2871346 12.7032056,14.1093776 12.1967388,14.6177154 C11.8330163,14.9827816 11.2928278,15.0922035 10.7966235,14.9006419 L10.6625512,14.8409014 L10.5012434,14.7377771 L10.3732991,14.6292386 L8.02668767,12.2998718 L5.61488557,14.6343245 C5.3765899,14.8648822 5.0634464,14.9910626 4.72477722,14.9934014 L4.57821428,14.9867649 L4.42938852,14.9646236 L4.25718262,14.9132286 L4.08423098,14.8333873 L3.91393389,14.7205829 L3.79663655,14.6177154 C3.42770775,14.2474237 3.32466572,13.6988799 3.53183762,13.2022443 L3.59606361,13.0682581 L3.70494602,12.9088233 L3.8134909,12.7881576 L7.09599034,9.61224738 C7.46172506,9.25838879 7.99555472,9.15646334 8.48493055,9.34813103 L8.61713484,9.40771451 L8.77598737,9.50976835 L8.89738501,9.61224738 L12.1798844,12.7881576 Z M12.1967388,1.37944207 C12.6201935,1.80446107 12.6883674,2.45635469 12.3841405,2.95411231 L12.3073158,3.06606989 L12.1798844,3.20899988 L8.89738501,6.38491009 C8.47783581,6.7908357 7.84410435,6.86084864 7.32781337,6.55905248 L7.21090499,6.48279071 L7.09599034,6.38491009 L3.8134909,3.20899988 C3.38131384,2.79085646 3.30246694,2.13968013 3.61869133,1.61161207 L3.69869828,1.49209766 L3.8306037,1.34798988 L3.95151304,1.24688712 C4.36867293,0.944671662 4.91916949,0.919624747 5.37798768,1.18571841 L5.50067784,1.26551827 L5.61489123,1.36283848 L8.02668767,3.69587178 L10.3784844,1.36283823 C10.7191923,1.03319373 11.2040351,0.923062816 11.6596515,1.06087733 L11.7952862,1.10968849 L11.9281272,1.17354695 L12.0821361,1.27830259 L12.1967388,1.37944207 Z"/>
</svg>
