<svg xmlns="http://www.w3.org/2000/svg" width="16" height="16" viewBox="0 0 16 16">
  <path fill-rule="evenodd" d="M13.0661029,3.90202868 C13.4712857,3.57667355 14.0643933,3.60044258 14.4423932,3.97705119 L14.4423932,3.97705119 L14.532801,4.07981387 C14.7532374,4.36661206 14.8073552,4.75046873 14.6685463,5.11002722 L14.6685463,5.11002722 L14.6136735,5.23238451 L14.5282707,5.36078518 L14.4397246,5.46166178 L11.9509339,7.96779323 L14.4558189,10.5556748 L14.541465,10.6563173 C14.6722934,10.8317876 14.7429534,11.0445281 14.7445356,11.2736369 L14.7445356,11.2736369 L14.7381491,11.4071647 L14.7184735,11.5305108 L14.6747984,11.6680085 L14.6075344,11.8076733 L14.5132888,11.9446953 L14.430884,12.0352143 L14.340454,12.1145391 C14.0564388,12.3340188 13.663057,12.3857279 13.2996215,12.2341205 L13.2996215,12.2341205 L13.1774496,12.175186 L13.0509421,12.0852915 L12.9564808,11.9973317 L9.79304534,8.72686182 L9.70551674,8.62377795 C9.49245395,8.33674831 9.4431801,7.95747772 9.58204205,7.60292823 L9.58204205,7.60292823 L9.63676401,7.48227523 L9.72123072,7.3558282 L9.80440986,7.26056615 L12.9689556,3.99063874 Z M1.66218001,3.882986 C1.95782871,3.65581371 2.3654225,3.60934966 2.71188067,3.76606518 L2.71188067,3.76606518 L2.821,3.823 L2.9257487,3.89550789 L3.04375837,4.00340739 L6.20636858,7.27313818 L6.28886094,7.36944344 C6.54131768,7.70342497 6.56779811,8.16045247 6.34435004,8.54271121 L6.34435004,8.54271121 L6.27453036,8.64919417 L6.19571963,8.73858997 L3.03045836,12.0093613 L2.93428786,12.0971184 C2.59967832,12.3659855 2.13168561,12.3973602 1.74118008,12.1635127 L1.74118008,12.1635127 L1.63229864,12.0902425 L1.51791474,11.9816722 L1.43980128,11.8848058 L1.36986104,11.7727302 C1.20468239,11.463382 1.21075867,11.0757862 1.4031087,10.7441221 L1.4031087,10.7441221 L1.47621738,10.6323185 L1.55425504,10.5439394 L4.04695985,7.96779641 L1.54144973,5.44213602 L1.4605413,5.34769254 C1.26190509,5.08508539 1.20118112,4.74040557 1.30129822,4.40941729 L1.30129822,4.40941729 L1.34604816,4.28605467 L1.39999318,4.17687386 L1.48614396,4.05515625 L1.56801398,3.96537217 Z"/>
</svg>
