<svg xmlns="http://www.w3.org/2000/svg" width="16" height="16" viewBox="0 0 16 16">
  <path fill-rule="evenodd" d="M7.37290973,9.70438852 C7.62406066,9.51795858 7.94583357,9.45692954 8.25987302,9.53761191 L8.25987302,9.53761191 L8.386,9.578 L8.51441244,9.63563579 L8.64085948,9.72010249 L8.73612153,9.80328164 L12.0060489,12.9678273 L12.094659,13.0649747 C12.4200141,13.4701575 12.3962451,14.0632651 12.0196365,14.4412649 C11.7264194,14.7355652 11.2911638,14.8235781 10.8866605,14.6674181 L10.8866605,14.6674181 L10.7643032,14.6125452 L10.6359025,14.5271425 L10.5350259,14.4385964 L8.02889445,11.9498056 L5.44101288,14.4546907 L5.34037035,14.5403367 C5.16490006,14.6711652 4.95215953,14.7418252 4.72305076,14.7434074 L4.72305076,14.7434074 L4.58952295,14.7370208 L4.46617691,14.7173452 L4.32867913,14.6736701 L4.18901439,14.6064062 L4.05199239,14.5121606 L3.96147342,14.4297558 L3.88214855,14.3393258 C3.66266887,14.0553106 3.6109598,13.6619288 3.76256719,13.2984933 L3.76256719,13.2984933 L3.8215017,13.1763213 L3.91139619,13.0498139 L3.999356,12.9553526 L7.26982585,9.79191712 Z M4.22395748,1.36873282 C4.49463713,1.2242015 4.82522516,1.21078724 5.12583179,1.33855147 L5.12583179,1.33855147 L5.245,1.397 L5.36436922,1.47508916 L5.45274824,1.55312681 L8.02889126,4.04583162 L10.5545516,1.54032151 L10.6489951,1.45941308 C10.9116023,1.26077687 11.2562821,1.2000529 11.5872704,1.30017 L11.5872704,1.30017 L11.710633,1.34491993 L11.8198138,1.39886496 L11.9415314,1.48501574 L12.0313155,1.56688575 L12.1137017,1.66105178 C12.3661153,1.98955034 12.3954324,2.45625271 12.170828,2.82373679 L12.170828,2.82373679 L12.1011798,2.92462048 L11.9932803,3.04263015 L8.7235495,6.20524035 L8.62724423,6.28773271 C8.29326271,6.54018946 7.8362352,6.56666988 7.45397646,6.34322182 L7.45397646,6.34322182 L7.34749351,6.27340213 L7.25809771,6.19459141 L3.98732641,3.02933014 L3.89956925,2.93315964 C3.6307022,2.59855009 3.59932749,2.13055738 3.83317494,1.74005185 L3.83317494,1.74005185 L3.90644517,1.63117041 L4.01501546,1.51678651 L4.11188185,1.43867305 Z"/>
</svg>
