<svg xmlns="http://www.w3.org/2000/svg" width="16" height="16" viewBox="0 0 16 16">
  <path fill-rule="evenodd" d="M13.2360044,3.65 C13.3996164,3.65 13.5528277,3.715092 13.6690598,3.83436639 C13.9103038,4.08174577 13.9103038,4.4860898 13.6690793,4.73353585 L6.540985,11.801996 C6.23334681,12.1070605 5.7387656,12.1117919 5.42534738,11.8126689 L2.33126872,8.85971273 L2.33126872,8.85971273 C2.21418163,8.73947442 2.14998446,8.58050633 2.14998446,8.41021035 C2.14977994,8.26389149 2.19705419,8.12592687 2.28440145,8.01392286 C2.2988362,7.9954134 2.31436535,7.97761292 2.33095546,7.96060088 C2.57012927,7.71543028 2.9581512,7.71540375 3.1973692,7.96061969 L5.56850936,10.1392691 C5.8036831,10.3553513 6.16690713,10.3493422 6.3948045,10.1255991 L12.8028067,3.83440519 L12.8028067,3.83440519 C12.9191264,3.71512722 13.0723897,3.65 13.2360044,3.65 Z"/>
</svg>
