<svg xmlns="http://www.w3.org/2000/svg" width="16" height="16" viewBox="0 0 16 16">
  <path fill-rule="evenodd" d="M8,16 C12.418278,16 16,12.418278 16,8 C16,3.581722 12.418278,0 8,0 C3.581722,0 0,3.581722 0,8 C0,12.418278 3.581722,16 8,16 Z M12.8437457,4.55 C12.9919754,4.55 13.1307822,4.60897224 13.2360866,4.71703282 C13.4546495,4.94115433 13.4546495,5.30748315 13.2361042,5.53166507 L6.83012824,11.8840482 C6.52249005,12.1891127 6.02790885,12.1938441 5.71449062,11.8947211 L2.96424046,9.26991122 L2.96424046,9.26991122 C2.85816155,9.16097734 2.8,9.01695496 2.8,8.86266969 C2.79981471,8.7301073 2.84264437,8.60511369 2.92177951,8.50363996 C2.93485715,8.4868707 2.94892629,8.47074377 2.96395665,8.45533116 C3.18064406,8.23321076 3.53218534,8.23318672 3.74891278,8.45534819 L5.85767223,10.3929172 C6.09284597,10.6089993 6.45607001,10.6029902 6.68396737,10.3792471 L12.4512759,4.71706797 L12.4512759,4.71706797 C12.5566596,4.60900415 12.6955136,4.55 12.8437457,4.55 Z"/>
</svg>
