<svg xmlns="http://www.w3.org/2000/svg" width="16" height="16" viewBox="0 0 16 16">
  <path fill-rule="evenodd" d="M3,0 L13,0 C14.6568542,-3.04359188e-16 16,1.34314575 16,3 L16,13 C16,14.6568542 14.6568542,16 13,16 L3,16 C1.34314575,16 2.02906125e-16,14.6568542 0,13 L0,3 C-2.02906125e-16,1.34314575 1.34314575,3.04359188e-16 3,0 Z M8.87999993,3.40659341 C8.87999993,2.90589569 8.48601054,2.5 8,2.5 C7.51398946,2.5 7.12000007,2.90589569 7.12000007,3.40659341 L7.12000007,10.4390087 L5.09522375,8.39939872 C4.74772297,8.04935212 4.190573,8.05580141 3.85079446,8.41380361 C3.51101592,8.77180582 3.51727603,9.34579278 3.86477681,9.69583938 L7.38477653,13.2416269 C7.7267685,13.5861244 8.2732315,13.5861244 8.61522347,13.2416269 L12.1352232,9.69583938 C12.482724,9.34579278 12.4889841,8.77180582 12.1492055,8.41380361 C11.809427,8.05580141 11.252277,8.04935212 10.9047763,8.39939872 L8.87999993,10.4390087 L8.87999993,3.40659341 Z"/>
</svg>
