<svg xmlns="http://www.w3.org/2000/svg" width="16" height="16" viewBox="0 0 16 16">
  <path fill-rule="evenodd" d="M3,0 L13,0 C14.6568542,-3.04359188e-16 16,1.34314575 16,3 L16,13 C16,14.6568542 14.6568542,16 13,16 L3,16 C1.34314575,16 2.02906125e-16,14.6568542 0,13 L0,3 C-2.02906125e-16,1.34314575 1.34314575,3.04359188e-16 3,0 Z M12.5934066,7.12000007 L5.56099127,7.12000007 L7.60060128,5.09522375 C7.95064788,4.74772297 7.94419859,4.190573 7.58619639,3.85079446 C7.22819418,3.51101592 6.65420722,3.51727603 6.30416062,3.86477681 L2.75837307,7.38477653 C2.41387564,7.7267685 2.41387564,8.2732315 2.75837307,8.61522347 L6.30416062,12.1352232 C6.65420722,12.482724 7.22819418,12.4889841 7.58619639,12.1492055 C7.94419859,11.809427 7.95064788,11.252277 7.60060128,10.9047763 L5.56099127,8.87999993 L12.5934066,8.87999993 C13.0941043,8.87999993 13.5,8.48601054 13.5,8 C13.5,7.51398946 13.0941043,7.12000007 12.5934066,7.12000007 Z"/>
</svg>
