<svg xmlns="http://www.w3.org/2000/svg" width="16" height="16" viewBox="0 0 16 16">
  <path fill-rule="evenodd" d="M4.8986253,4.16447425 C5.20360442,3.84925948 5.70526646,3.84462076 6.01594268,4.15415351 C6.26228783,4.39959195 6.31648453,4.7730253 6.1627184,5.07783223 L6.103739,5.1766231 L6.025449,5.27120488 L3.3514139,7.966 L6.02611322,10.7294731 C6.21000994,10.9195418 6.28305635,11.1841428 6.23305351,11.4369063 L6.20405453,11.544257 L6.15977491,11.6486473 L6.09270089,11.7566384 L6.01594268,11.8458465 C5.76693293,12.0939397 5.39060051,12.1426785 5.08845313,11.9791943 L4.99076135,11.9168218 L4.8986253,11.8355258 L1.72271508,8.55302631 C1.48397207,8.30627066 1.43439314,7.93767427 1.58743303,7.63706081 L1.64596918,7.5396346 L1.72271508,7.44697369 L4.8986253,4.16447425 Z M9.98347124,4.15415351 C10.2659042,3.8727601 10.7061766,3.85101253 11.0130273,4.08620952 L11.1007886,4.16447425 L14.2766988,7.44697369 C14.5473669,7.72672589 14.5719731,8.15761062 14.3505174,8.46484146 L14.2766988,8.55302631 L11.1007886,11.8355258 C10.8235349,12.1220846 10.3837333,12.1519691 10.0696302,11.919228 L9.97945849,11.8415209 L9.90292454,11.7518343 C9.69836837,11.4694774 9.70165341,11.0919101 9.89998992,10.8170204 L9.97330868,10.7294649 L12.647,7.966 L9.97330593,5.27053228 C9.72649455,5.01543747 9.68465524,4.63539144 9.84590489,4.33794035 L9.907174,4.24213376 L9.98347124,4.15415351 Z"/>
</svg>
