<svg xmlns="http://www.w3.org/2000/svg" width="16" height="16" viewBox="0 0 16 16">
  <path fill-rule="evenodd" d="M11.835247,4.89834657 C12.1504618,5.2033257 12.1551005,5.70498773 11.8455678,6.01566396 C11.6001293,6.2620091 11.226696,6.31620581 10.9218891,6.16243967 L10.8230982,6.10346028 L10.7285164,6.02517028 L8.03372129,3.35113518 L5.27024817,6.02583449 C5.08017954,6.20973122 4.81557851,6.28277763 4.562815,6.23277479 L4.45546433,6.20377581 L4.351074,6.15949618 L4.24308293,6.09242217 L4.1538748,6.01566396 C3.90578156,5.76665421 3.85704283,5.39032179 4.02052699,5.08817441 L4.08289947,4.99048263 L4.16419554,4.89834657 L7.44669498,1.72243636 C7.69345063,1.48369335 8.06204702,1.43411442 8.36266048,1.5871543 L8.46008669,1.64569046 L8.55274761,1.72243636 L11.835247,4.89834657 Z M11.8455678,9.98319252 C12.1269612,10.2656254 12.1487088,10.7058979 11.9135118,11.0127486 L11.835247,11.1005099 L8.55274761,14.2764201 C8.2729954,14.5470882 7.84211068,14.5716944 7.53487983,14.3502387 L7.44669498,14.2764201 L4.16419554,11.1005099 C3.87763666,10.8232562 3.8477522,10.3834545 4.08049334,10.0693515 L4.15820039,9.97917977 L4.24788698,9.90264582 C4.53024391,9.69808965 4.9078112,9.70137468 5.18270085,9.8997112 L5.27025641,9.97302996 L8.03372129,12.6467213 L10.729189,9.97302721 C10.9842838,9.72621583 11.3643299,9.68437652 11.6617809,9.84562617 L11.7575875,9.90689528 L11.8455678,9.98319252 Z"/>
</svg>
