<svg xmlns="http://www.w3.org/2000/svg" width="16" height="16" viewBox="0 0 16 16">
  <path fill-rule="evenodd" d="M0,8 C0,3.581722 3.581722,0 8,0 C12.418278,0 16,3.581722 16,8 C16,12.418278 12.418278,16 8,16 C3.581722,16 0,12.418278 0,8 Z M8.48780485,4.66816508 L11.171162,7.32559618 C11.3637899,7.51636298 11.6726314,7.51284828 11.8609787,7.31774587 C12.049326,7.12264345 12.0458559,6.80983465 11.8532279,6.61906785 L8.34103297,3.14080698 C8.15145871,2.95306434 7.84854129,2.95306434 7.65896703,3.14080698 L4.14677207,6.61906785 C3.95414414,6.80983465 3.95067401,7.12264345 4.13902132,7.31774587 C4.32736863,7.51284828 4.63621009,7.51636298 4.82883802,7.32559618 L7.51219515,4.66816508 L7.51219515,12.5059289 C7.51219515,12.7787968 7.73059282,13 8,13 C8.26940718,13 8.48780485,12.7787968 8.48780485,12.5059289 L8.48780485,4.66816508 Z"/>
</svg>
