<svg xmlns="http://www.w3.org/2000/svg" width="16" height="16" viewBox="0 0 16 16">
  <path fill-rule="evenodd" d="M8,16 C3.581722,16 0,12.418278 0,8 C0,3.581722 3.581722,0 8,0 C12.418278,0 16,3.581722 16,8 C16,12.418278 12.418278,16 8,16 Z M4.66816508,7.51219515 L7.32559618,4.82883802 C7.51636298,4.63621009 7.51284828,4.32736863 7.31774587,4.13902132 C7.12264345,3.95067401 6.80983465,3.95414414 6.61906785,4.14677207 L3.14080698,7.65896703 C2.95306434,7.84854129 2.95306434,8.15145871 3.14080698,8.34103297 L6.61906785,11.8532279 C6.80983465,12.0458559 7.12264345,12.049326 7.31774587,11.8609787 C7.51284828,11.6726314 7.51636298,11.3637899 7.32559618,11.171162 L4.66816508,8.48780485 L12.5059289,8.48780485 C12.7787968,8.48780485 13,8.26940718 13,8 C13,7.73059282 12.7787968,7.51219515 12.5059289,7.51219515 L4.66816508,7.51219515 Z"/>
</svg>
