<svg xmlns="http://www.w3.org/2000/svg" width="16" height="16" viewBox="0 0 16 16">
  <path fill-rule="evenodd" d="M0,8 C0,3.581722 3.581722,0 8,0 C12.418278,0 16,3.581722 16,8 C16,12.418278 12.418278,16 8,16 C3.581722,16 0,12.418278 0,8 Z M8.48780485,11.3318349 L8.48780485,3.49407115 C8.48780485,3.22120319 8.26940718,3 8,3 C7.73059282,3 7.51219515,3.22120319 7.51219515,3.49407115 L7.51219515,11.3318349 L4.82883802,8.67440382 C4.63621009,8.48363702 4.32736863,8.48715172 4.13902132,8.68225413 C3.95067401,8.87735655 3.95414414,9.19016535 4.14677207,9.38093215 L7.65896703,12.859193 C7.84854129,13.0469357 8.15145871,13.0469357 8.34103297,12.859193 L11.8532279,9.38093215 C12.0458559,9.19016535 12.049326,8.87735655 11.8609787,8.68225413 C11.6726314,8.48715172 11.3637899,8.48363702 11.171162,8.67440382 L8.48780485,11.3318349 Z"/>
</svg>
