<svg xmlns="http://www.w3.org/2000/svg" width="16" height="16" viewBox="0 0 16 16">
  <path fill-rule="evenodd" d="M8,16 C3.581722,16 0,12.418278 0,8 C0,3.581722 3.581722,0 8,0 C12.418278,0 16,3.581722 16,8 C16,12.418278 12.418278,16 8,16 Z M11.3318349,7.51219515 L3.49407115,7.51219515 C3.22120319,7.51219515 3,7.73059282 3,8 C3,8.26940718 3.22120319,8.48780485 3.49407115,8.48780485 L11.3318349,8.48780485 L8.67440382,11.171162 C8.48363702,11.3637899 8.48715172,11.6726314 8.68225413,11.8609787 C8.87735655,12.049326 9.19016535,12.0458559 9.38093215,11.8532279 L12.859193,8.34103297 C13.0469357,8.15145871 13.0469357,7.84854129 12.859193,7.65896703 L9.38093215,4.14677207 C9.19016535,3.95414414 8.87735655,3.95067401 8.68225413,4.13902132 C8.48715172,4.32736863 8.48363702,4.63621009 8.67440382,4.82883802 L11.3318349,7.51219515 Z"/>
</svg>
