<svg xmlns="http://www.w3.org/2000/svg" width="16" height="16" viewBox="0 0 16 16">
  <path fill-rule="evenodd" d="M11.8346495,13.1489441 C12.1498643,13.4539232 12.154503,13.9555853 11.8449702,14.2662615 C11.5995318,14.5126066 11.2260985,14.5668033 10.9212915,14.4130372 L10.8225007,14.3540578 L10.7279189,14.2757678 L8.03312375,11.6017327 L5.26965063,14.276432 C5.079582,14.4603288 4.81498097,14.5333752 4.56221746,14.4833723 L4.45486679,14.4543734 L4.35047646,14.4100937 L4.24248539,14.3430197 L4.15327726,14.2662615 C3.90518402,14.0172517 3.85644529,13.6409193 4.01992945,13.3387719 L4.08230193,13.2410802 L4.163598,13.1489441 L7.44609744,9.9730339 C7.69285309,9.73429089 8.06144948,9.68471196 8.36206294,9.83775184 L8.45948915,9.896288 L8.55215007,9.9730339 L11.8346495,13.1489441 Z M11.8449702,1.73379006 C12.1263637,2.01622299 12.1481112,2.45649543 11.9129142,2.76334614 L11.8346495,2.85110744 L8.55215007,6.02701765 C8.27239786,6.29768575 7.84151314,6.32229194 7.53428229,6.10083622 L7.44609744,6.02701765 L4.163598,2.85110744 C3.87703912,2.57385369 3.84715466,2.13405208 4.0798958,1.81994902 L4.15760285,1.72977731 L4.24728944,1.65324336 C4.52964637,1.44868719 4.90721366,1.45197222 5.18210331,1.65030874 L5.26965887,1.7236275 L8.03312375,4.39731883 L10.7285915,1.72362475 C10.9836863,1.47681337 11.3637323,1.43497406 11.6611834,1.59622371 L11.75699,1.65749282 L11.8449702,1.73379006 Z"/>
</svg>
