<svg xmlns="http://www.w3.org/2000/svg" width="16" height="16" viewBox="0 0 16 16">
  <path fill-rule="evenodd" d="M13.1486253,4.16447425 C13.4536044,3.84925948 13.9552665,3.84462076 14.2659427,4.15415351 C14.5122878,4.39959195 14.5664845,4.7730253 14.4127184,5.07783223 L14.353739,5.1766231 L14.275449,5.27120488 L11.6014139,7.966 L14.2761132,10.7294731 C14.4600099,10.9195418 14.5330564,11.1841428 14.4830535,11.4369063 L14.4540545,11.544257 L14.4097749,11.6486473 L14.3427009,11.7566384 L14.2659427,11.8458465 C14.0169329,12.0939397 13.6406005,12.1426785 13.3384531,11.9791943 L13.2407613,11.9168218 L13.1486253,11.8355258 L9.97271508,8.55302631 C9.73397207,8.30627066 9.68439314,7.93767427 9.83743303,7.63706081 L9.89596918,7.5396346 L9.97271508,7.44697369 L13.1486253,4.16447425 Z M1.73347124,4.15415351 C2.01590417,3.8727601 2.45617662,3.85101253 2.76302732,4.08620952 L2.85078862,4.16447425 L6.02669884,7.44697369 C6.29736693,7.72672589 6.32197312,8.15761062 6.10051741,8.46484146 L6.02669884,8.55302631 L2.85078862,11.8355258 C2.57353488,12.1220846 2.13373326,12.1519691 1.81963021,11.919228 L1.72945849,11.8415209 L1.65292454,11.7518343 C1.44836837,11.4694774 1.45165341,11.0919101 1.64998992,10.8170204 L1.72330868,10.7294649 L4.39700002,7.966 L1.72330593,5.27053228 C1.47649455,5.01543747 1.43465524,4.63539144 1.59590489,4.33794035 L1.657174,4.24213376 L1.73347124,4.15415351 Z"/>
</svg>
