<svg xmlns="http://www.w3.org/2000/svg" width="16" height="16" viewBox="0 0 16 16">
  <path fill-rule="evenodd" d="M4.53928581,3.81680323 C5.03826284,3.30107964 5.86050583,3.29348207 6.36884362,3.79994887 C6.73390979,4.16367138 6.84333168,4.70385989 6.65177016,5.20006415 L6.59202964,5.33413645 L6.48890531,5.49544424 L6.38036685,5.62338853 L4.051,7.97 L6.3854527,10.3818021 C6.61601043,10.6200978 6.74219083,10.9332413 6.74452967,11.2719105 L6.73789315,11.4184734 L6.71575187,11.5672991 L6.66435681,11.7395051 L6.58451553,11.9124567 L6.4717111,12.0827538 L6.36884362,12.2000511 C5.99855193,12.5689799 5.45000815,12.672022 4.95337249,12.4648501 L4.8193863,12.4006241 L4.65995154,12.2917416 L4.53928581,12.1831968 L1.3633756,8.90069733 C1.00951701,8.53496261 0.907591565,8.00113296 1.09925926,7.51175712 L1.15884273,7.37955283 L1.26089657,7.2207003 L1.3633756,7.09930267 L4.53928581,3.81680323 Z M9.63057029,3.79994887 C10.0555893,3.3764942 10.7074829,3.30832026 11.2052405,3.61254718 L11.3171981,3.68937185 L11.4601281,3.81680323 L14.6360383,7.09930267 C15.0419639,7.51885187 15.1119769,8.15258332 14.8101807,8.6688743 L14.7339189,8.78578268 L14.6360383,8.90069733 L11.4601281,12.1831968 C11.0419847,12.6153738 10.3908084,12.6942207 9.86274029,12.3779963 L9.74322589,12.2979894 L9.5991181,12.166084 L9.49801535,12.0451746 C9.19579989,11.6280147 9.17075297,11.0775182 9.43684663,10.6187 L9.51664649,10.4960098 L9.6139667,10.3817964 L11.947,7.97 L9.61396645,5.6182033 C9.28432196,5.27749535 9.17419104,4.79265258 9.31200556,4.33703621 L9.36081671,4.20140145 L9.42467518,4.06856045 L9.52943081,3.91455158 L9.63057029,3.79994887 Z"/>
</svg>
