<svg xmlns="http://www.w3.org/2000/svg" width="16" height="16" viewBox="0 0 16 16">
  <path fill-rule="evenodd" d="M12.181122,4.53692002 C12.6968456,5.03589705 12.7044432,5.85814004 12.1979764,6.36647783 C11.8342539,6.731544 11.2940654,6.84096589 10.7978611,6.64940437 L10.6637888,6.58966385 L10.502481,6.48653952 L10.3745367,6.37800106 L8.02792524,4.04863421 L5.61612313,6.38308691 C5.37782747,6.61364464 5.06468397,6.73982504 4.72601478,6.74216388 L4.57945184,6.73552736 L4.43062609,6.71338608 L4.25842019,6.66199102 L4.08546854,6.58214974 L3.91517146,6.46934531 L3.79787411,6.36647783 C3.42894532,5.99618614 3.32590329,5.44764236 3.53307519,4.9510067 L3.59730117,4.81702051 L3.70618359,4.65758575 L3.81472847,4.53692002 L7.09722791,1.36100981 C7.46296263,1.00715122 7.99679228,0.905225775 8.48616812,1.09689347 L8.61837241,1.15647694 L8.77722493,1.25853078 L8.89862257,1.36100981 L12.181122,4.53692002 Z M12.1979764,9.6282045 C12.621431,10.0532235 12.689605,10.7051171 12.3853781,11.2028747 L12.3085534,11.3148323 L12.181122,11.4577623 L8.89862257,14.6336725 C8.47907337,15.0395981 7.84534192,15.1096111 7.32905094,14.8078149 L7.21214256,14.7315531 L7.09722791,14.6336725 L3.81472847,11.4577623 C3.38255141,11.0396189 3.30370451,10.3884426 3.61992889,9.8603745 L3.69993585,9.7408601 L3.83184127,9.59675231 L3.9527506,9.49564956 C4.3699105,9.1934341 4.92040705,9.16838718 5.37922525,9.43448084 L5.50191541,9.5142807 L5.6161288,9.61160091 L8.02792524,11.9446342 L10.3797219,9.61160066 C10.7204299,9.28195617 11.2052727,9.17182525 11.660889,9.30963977 L11.7965238,9.35845092 L11.9293648,9.42230939 L12.0833737,9.52706502 L12.1979764,9.6282045 Z"/>
</svg>
