<svg xmlns="http://www.w3.org/2000/svg" width="16" height="16" viewBox="0 0 16 16">
  <path fill-rule="evenodd" d="M12.7892858,3.81680323 C13.2882628,3.30107964 14.1105058,3.29348207 14.6188436,3.79994887 C14.9839098,4.16367138 15.0933317,4.70385989 14.9017702,5.20006415 L14.8420296,5.33413645 L14.7389053,5.49544424 L14.6303668,5.62338853 L12.301,7.97 L14.6354527,10.3818021 C14.8660104,10.6200978 14.9921908,10.9332413 14.9945297,11.2719105 L14.9878931,11.4184734 L14.9657519,11.5672991 L14.9143568,11.7395051 L14.8345155,11.9124567 L14.7217111,12.0827538 L14.6188436,12.2000511 C14.2485519,12.5689799 13.7000081,12.672022 13.2033725,12.4648501 L13.0693863,12.4006241 L12.9099515,12.2917416 L12.7892858,12.1831968 L9.6133756,8.90069733 C9.25951701,8.53496261 9.15759157,8.00113296 9.34925926,7.51175712 L9.40884273,7.37955283 L9.51089657,7.2207003 L9.6133756,7.09930267 L12.7892858,3.81680323 Z M1.38057029,3.79994887 C1.80558929,3.3764942 2.45748291,3.30832026 2.95524053,3.61254718 L3.06719811,3.68937185 L3.2101281,3.81680323 L6.38603832,7.09930267 C6.79196393,7.51885187 6.86197686,8.15258332 6.56018071,8.6688743 L6.48391894,8.78578268 L6.38603832,8.90069733 L3.2101281,12.1831968 C2.79198469,12.6153738 2.14080835,12.6942207 1.61274029,12.3779963 L1.49322589,12.2979894 L1.3491181,12.166084 L1.24801535,12.0451746 C0.945799887,11.6280147 0.920752972,11.0775182 1.18684663,10.6187 L1.26664649,10.4960098 L1.3639667,10.3817964 L3.697,7.97 L1.36396645,5.6182033 C1.03432196,5.27749535 0.92419104,4.79265258 1.06200556,4.33703621 L1.11081671,4.20140145 L1.17467518,4.06856045 L1.27943081,3.91455158 L1.38057029,3.79994887 Z"/>
</svg>
