<svg xmlns="http://www.w3.org/2000/svg" width="16" height="16" viewBox="0 0 16 16">
  <path fill-rule="evenodd" d="M8,16 C3.581722,16 0,12.418278 0,8 C0,3.581722 3.581722,0 8,0 C12.418278,0 16,3.581722 16,8 C16,12.418278 12.418278,16 8,16 Z M3.82417582,7.20000006 C3.36899609,7.20000006 3,7.55817224 3,8 C3,8.44182776 3.36899609,8.79999994 3.82417582,8.79999994 L10.2172807,8.79999994 L8.36308974,10.6407057 C8.04486556,10.9566155 8.05072855,11.4631155 8.3761851,11.772005 C8.70164165,12.0808946 9.22344798,12.0752036 9.54167216,11.7592938 L12.7651154,8.55929406 C13.0782949,8.24839227 13.0782949,7.75160773 12.7651154,7.44070594 L9.54167216,4.24070619 C9.22344798,3.92479639 8.70164165,3.91910538 8.3761851,4.22799496 C8.05072855,4.53688454 8.04486556,5.04338452 8.36308974,5.35929431 L10.2172807,7.20000006 L3.82417582,7.20000006 Z"/>
</svg>
