<svg xmlns="http://www.w3.org/2000/svg" width="16" height="16" viewBox="0 0 16 16">
  <path fill-rule="evenodd" d="M8,16 C3.581722,16 0,12.418278 0,8 C0,3.581722 3.581722,0 8,0 C12.418278,0 16,3.581722 16,8 C16,12.418278 12.418278,16 8,16 Z M12.1758242,7.20000006 L5.78271934,7.20000006 L7.63691026,5.35929431 C7.95513444,5.04338452 7.94927145,4.53688454 7.6238149,4.22799496 C7.29835835,3.91910538 6.77655202,3.92479639 6.45832784,4.24070619 L3.23488461,7.44070594 C2.92170513,7.75160773 2.92170513,8.24839227 3.23488461,8.55929406 L6.45832784,11.7592938 C6.77655202,12.0752036 7.29835835,12.0808946 7.6238149,11.772005 C7.94927145,11.4631155 7.95513444,10.9566155 7.63691026,10.6407057 L5.78271934,8.79999994 L12.1758242,8.79999994 C12.6310039,8.79999994 13,8.44182776 13,8 C13,7.55817224 12.6310039,7.20000006 12.1758242,7.20000006 Z"/>
</svg>
