<svg xmlns="http://www.w3.org/2000/svg" width="16" height="16" viewBox="0 0 16 16">
  <path fill-rule="evenodd" d="M6.08953453,4.33125582 C5.90122969,4.14364405 5.61058121,4.12529058 5.40224458,4.27450353 L5.32833736,4.33830976 L2.16529371,7.60644084 L2.11030665,7.6683886 L2.06026604,7.75048176 C1.96921063,7.92934024 1.98290525,8.140442 2.09072355,8.30257879 L2.15242715,8.3791908 L5.31407252,11.6480658 L5.37533709,11.7061069 L5.45746552,11.7593168 C5.63599517,11.8559146 5.84927982,11.8434896 6.00427218,11.7412841 L6.0764799,11.6827888 L6.1303729,11.6247337 L6.1796661,11.5510232 L6.21274768,11.4790605 L6.23784861,11.3883904 C6.26573625,11.2474188 6.23804779,11.1037345 6.16225984,10.9861681 L6.09651704,10.9033409 L3.25142527,7.96381998 L6.08290817,5.11179431 L6.1391257,5.04847099 L6.1895545,4.96523125 C6.28106233,4.78383745 6.26501407,4.56997315 6.15330546,4.40770249 L6.08953453,4.33125582 Z M10.5293182,4.23240724 C10.3570114,4.1446632 10.1496264,4.15660426 9.99566102,4.25915842 L9.92353971,4.3179446 L9.86898573,4.37682371 L9.81688442,4.45708557 C9.72045339,4.63496822 9.73133147,4.85159739 9.8397201,5.01665871 L9.90199493,5.09447392 L12.7481635,7.96382067 L9.91617727,10.8899702 L9.85392481,10.9632986 C9.73659764,11.1259112 9.71978572,11.3397597 9.79755354,11.509059 L9.84429161,11.5895528 L9.89385753,11.6521402 L9.96966378,11.7183607 C10.1588788,11.8585635 10.4113583,11.8584189 10.5971517,11.7263458 L10.6723158,11.6616902 L13.8361949,8.3925557 L13.8989088,8.31865683 C14.0328419,8.1328483 14.0342044,7.88325078 13.909413,7.69658594 L13.848226,7.6208092 L10.6855923,4.35105746 L10.6091969,4.283 L10.5293182,4.23240724 Z"/>
</svg>
