<svg xmlns="http://www.w3.org/2000/svg" width="16" height="16" viewBox="0 0 16 16">
  <path fill-rule="evenodd" d="M13.8395345,4.33125582 C13.6512297,4.14364405 13.3605812,4.12529058 13.1522446,4.27450353 L13.0783374,4.33830976 L9.91529371,7.60644084 L9.86030665,7.6683886 L9.81026604,7.75048176 C9.71921063,7.92934024 9.73290525,8.140442 9.84072355,8.30257879 L9.90242715,8.3791908 L13.0640725,11.6480658 L13.1253371,11.7061069 L13.2074655,11.7593168 C13.3859952,11.8559146 13.5992798,11.8434896 13.7542722,11.7412841 L13.8264799,11.6827888 L13.8803729,11.6247337 L13.9296661,11.5510232 L13.9627477,11.4790605 L13.9878486,11.3883904 C14.0157362,11.2474188 13.9880478,11.1037345 13.9122598,10.9861681 L13.846517,10.9033409 L11.0014253,7.96381998 L13.8329082,5.11179431 L13.8891257,5.04847099 L13.9395545,4.96523125 C14.0310623,4.78383745 14.0150141,4.56997315 13.9033055,4.40770249 L13.8395345,4.33125582 Z M2.77931825,4.23240724 C2.60701135,4.1446632 2.39962635,4.15660426 2.24566102,4.25915842 L2.17353971,4.3179446 L2.11898573,4.37682371 L2.06688442,4.45708557 C1.97045339,4.63496822 1.98133147,4.85159739 2.0897201,5.01665871 L2.15199493,5.09447392 L4.99816348,7.96382067 L2.16617727,10.8899702 L2.10392481,10.9632986 C1.98659764,11.1259112 1.96978572,11.3397597 2.04755354,11.509059 L2.09429161,11.5895528 L2.14385753,11.6521402 L2.21966378,11.7183607 C2.4088788,11.8585635 2.66135832,11.8584189 2.84715171,11.7263458 L2.92231576,11.6616902 L6.08619495,8.3925557 L6.14890883,8.31865683 C6.28284187,8.1328483 6.28420437,7.88325078 6.15941299,7.69658594 L6.09822597,7.6208092 L2.93559228,4.35105746 L2.85919688,4.283 L2.77931825,4.23240724 Z"/>
</svg>
