<svg xmlns="http://www.w3.org/2000/svg" width="16" height="16" viewBox="0 0 16 16">
  <path fill-rule="evenodd" d="M3,0 L13,0 C14.6568542,-3.04359188e-16 16,1.34314575 16,3 L16,13 C16,14.6568542 14.6568542,16 13,16 L3,16 C1.34314575,16 2.02906125e-16,14.6568542 0,13 L0,3 C-2.02906125e-16,1.34314575 1.34314575,3.04359188e-16 3,0 Z M3.40659341,7.12000007 C2.90589569,7.12000007 2.5,7.51398946 2.5,8 C2.5,8.48601054 2.90589569,8.87999993 3.40659341,8.87999993 L10.4390087,8.87999993 L8.39939872,10.9047763 C8.04935212,11.252277 8.05580141,11.809427 8.41380361,12.1492055 C8.77180582,12.4889841 9.34579278,12.482724 9.69583938,12.1352232 L13.2416269,8.61522347 C13.5861244,8.2732315 13.5861244,7.7267685 13.2416269,7.38477653 L9.69583938,3.86477681 C9.34579278,3.51727603 8.77180582,3.51101592 8.41380361,3.85079446 C8.05580141,4.190573 8.04935212,4.74772297 8.39939872,5.09522375 L10.4390087,7.12000007 L3.40659341,7.12000007 Z"/>
</svg>
