<svg xmlns="http://www.w3.org/2000/svg" width="16" height="16" viewBox="0 0 16 16">
  <path fill-rule="evenodd" d="M3,0 L13,0 C14.6568542,-3.04359188e-16 16,1.34314575 16,3 L16,13 C16,14.6568542 14.6568542,16 13,16 L3,16 C1.34314575,16 2.02906125e-16,14.6568542 0,13 L0,3 C-2.02906125e-16,1.34314575 1.34314575,3.04359188e-16 3,0 Z M8.87999993,12.5934066 L8.87999993,5.56099127 L10.9047763,7.60060128 C11.252277,7.95064788 11.809427,7.94419859 12.1492055,7.58619639 C12.4889841,7.22819418 12.482724,6.65420722 12.1352232,6.30416062 L8.61522347,2.75837307 C8.2732315,2.41387564 7.7267685,2.41387564 7.38477653,2.75837307 L3.86477681,6.30416062 C3.51727603,6.65420722 3.51101592,7.22819418 3.85079446,7.58619639 C4.190573,7.94419859 4.74772297,7.95064788 5.09522375,7.60060128 L7.12000007,5.56099127 L7.12000007,12.5934066 C7.12000007,13.0941043 7.51398946,13.5 8,13.5 C8.48601054,13.5 8.87999993,13.0941043 8.87999993,12.5934066 Z"/>
</svg>
