<svg xmlns="http://www.w3.org/2000/svg" width="16" height="16" viewBox="0 0 16 16">
  <path fill-rule="evenodd" d="M13.2360044,3.4 C13.0045973,3.4 12.7869188,3.49261972 12.6238244,3.65986195 L6.47040445,9.96977724 L6.40878275,10.0264285 C6.29647624,10.1198951 6.1449711,10.1748418 5.98814884,10.1748418 C5.83127454,10.1748418 5.6797809,10.1198609 5.55753495,10.0176614 L5.50589323,9.96977724 L3.37635148,7.78607644 C3.03900683,7.44027352 2.48929623,7.44027691 2.15200376,7.78602628 C1.98908562,7.9530878 1.89965015,8.17514393 1.89999675,8.41058054 C1.89999675,8.64535663 1.98940406,8.86698995 2.15216056,9.0341268 L5.37617771,12.3401381 C5.53927208,12.5073803 5.75695063,12.6 5.98835768,12.6 C6.21968365,12.6 6.43735527,12.5073635 6.60043248,12.3401388 L13.8480629,4.90807781 C14.1839755,4.56350148 14.1839671,4.00429151 13.8480421,3.65982315 C13.6850961,3.49261221 13.4674427,3.4 13.2360044,3.4 Z"/>
</svg>
