<svg xmlns="http://www.w3.org/2000/svg" width="16" height="16" viewBox="0 0 16 16">
  <path fill-rule="evenodd" d="M8,0 C12.418278,0 16,3.581722 16,8 C16,12.418278 12.418278,16 8,16 C3.581722,16 0,12.418278 0,8 C0,3.581722 3.581722,0 8,0 Z M8,1.5 C4.41014913,1.5 1.5,4.41014913 1.5,8 C1.5,11.5898509 4.41014913,14.5 8,14.5 C11.5898509,14.5 14.5,11.5898509 14.5,8 C14.5,4.41014913 11.5898509,1.5 8,1.5 Z M10.9250831,5.1 C11.1279856,5.1 11.3200496,5.18316802 11.4623047,5.33227458 C11.7525636,5.63629343 11.7525641,6.1263988 11.4623064,6.43052293 L11.4623064,6.43052293 L7.4203459,10.6641566 C7.27798467,10.8132666 7.08594589,10.8964312 6.8831243,10.8964312 C6.68025643,10.8964312 6.48821394,10.8132752 6.34584446,10.6641566 L6.34584446,10.6641566 L4.54773898,8.78081043 C4.40753796,8.63375103 4.32999918,8.43812693 4.32999918,8.23238638 C4.32969966,8.02593329 4.4072917,7.82982893 4.54966226,7.6808165 L4.54966226,7.6808165 L4.60910837,7.62508342 C4.90902159,7.37287745 5.34861918,7.3961904 5.62227203,7.68271559 L5.62227203,7.68271559 L6.81864372,8.93492756 C6.83737174,8.95091981 6.85970854,8.95924199 6.88300783,8.95924199 C6.89839686,8.95924199 6.91340635,8.9556086 6.92102275,8.95228771 L6.92102275,8.95228771 L6.94999033,8.93273933 L10.3878033,5.33227458 C10.5301727,5.18315597 10.7222152,5.1 10.9250831,5.1 Z"/>
</svg>
