<svg xmlns="http://www.w3.org/2000/svg" width="16" height="16" viewBox="0 0 16 16">
  <path fill-rule="evenodd" d="M8,0 C12.418278,0 16,3.581722 16,8 C16,12.418278 12.418278,16 8,16 C3.581722,16 0,12.418278 0,8 C0,3.581722 3.581722,0 8,0 Z M12.0785225,4.3 C11.7769257,4.3 11.4915095,4.42128381 11.2803492,4.63781446 L6.71930865,9.31454562 L6.7097403,9.31840155 L6.69722053,9.31182602 L5.11976853,7.69425586 C4.68086805,7.24435078 3.96227455,7.24439991 3.5234899,7.6941862 C3.31475664,7.90822799 3.19955387,8.1936906 3.19999828,8.49357669 C3.19999828,8.79208432 3.31498043,9.07687265 3.52337434,9.29087507 L5.91172171,11.7399637 C6.12288208,11.9564944 6.4082982,12.0777782 6.709895,12.0777782 C7.01143501,12.0777782 7.29684482,11.9564797 7.50799094,11.7399637 L12.8766212,6.23471777 C13.3077835,5.7924351 13.3077835,5.0799451 12.8766184,4.63781446 C12.6656091,4.4212822 12.3801392,4.3 12.0785225,4.3 Z"/>
</svg>
