<svg xmlns="http://www.w3.org/2000/svg" width="16" height="16" viewBox="0 0 16 16">
  <path fill-rule="evenodd" d="M8,0 C12.418278,0 16,3.581722 16,8 C16,12.418278 12.418278,16 8,16 C3.581722,16 0,12.418278 0,8 C0,3.581722 3.581722,0 8,0 Z M8,2 C4.6862915,2 2,4.6862915 2,8 C2,11.3137085 4.6862915,14 8,14 C11.3137085,14 14,11.3137085 14,8 C14,4.6862915 11.3137085,2 8,2 Z M11.4906696,5 C11.7621247,5 12.0190475,5.10915398 12.2089559,5.304033 C12.5970045,5.70195056 12.5970045,6.34319152 12.2089584,6.74124591 L12.2089584,6.74124591 L7.37719143,11.695967 C7.18715993,11.8908314 6.93029112,12 6.65890512,12 C6.38746801,12 6.13059352,11.8908446 5.94054919,11.695967 L5.94054919,11.695967 L3.79103667,9.49178734 C3.60348216,9.29918517 3.49999823,9.04287569 3.49999823,8.77421883 C3.49959826,8.50432136 3.60328075,8.24740504 3.79114067,8.05476743 C4.18604684,7.64995979 4.83278095,7.64991558 5.22779137,8.05483013 L5.22779137,8.05483013 L6.6474981,9.5106432 L6.65876589,9.51656118 L6.66737741,9.51309084 L10.7723137,5.304033 C10.962358,5.10915542 11.2192325,5 11.4906696,5 Z"/>
</svg>
