<svg xmlns="http://www.w3.org/2000/svg" width="16" height="16" viewBox="0 0 16 16">
  <path fill-rule="evenodd" d="M12,0 C14.209139,0 16,1.790861 16,4 L16,12 C16,14.209139 14.209139,16 12,16 L4,16 C1.790861,16 0,14.209139 0,12 L0,4 C0,1.790861 1.790861,0 4,0 L12,0 Z M11.6923077,2 L4.30769231,2 C3.08416917,2 2.08304123,2.95218702 2.00490863,4.1559609 L2,4.30769231 L2,11.6923077 C2,12.9158308 2.95218702,13.9169588 4.1559609,13.9950914 L4.30769231,14 L11.6923077,14 C12.9158308,14 13.9169588,13.047813 13.9950914,11.8440391 L14,11.6923077 L14,4.30769231 C14,3.08416917 13.047813,2.08304123 11.8440391,2.00490863 L11.6923077,2 Z M11.4906696,5 C11.7621247,5 12.0190475,5.10915398 12.2089559,5.304033 C12.5970045,5.70195056 12.5970045,6.34319152 12.2089584,6.74124591 L12.2089584,6.74124591 L7.37719143,11.695967 C7.18715993,11.8908314 6.93029112,12 6.65890512,12 C6.38746801,12 6.13059352,11.8908446 5.94054919,11.695967 L5.94054919,11.695967 L3.79103667,9.49178734 C3.60348216,9.29918517 3.49999823,9.04287569 3.49999823,8.77421883 C3.49959826,8.50432136 3.60328075,8.24740504 3.79114067,8.05476743 C4.18604684,7.64995979 4.83278095,7.64991558 5.22779137,8.05483013 L5.22779137,8.05483013 L6.6474981,9.5106432 L6.65876589,9.51656118 L6.66737741,9.51309084 L10.7723137,5.304033 C10.962358,5.10915542 11.2192325,5 11.4906696,5 Z"/>
</svg>
