<svg xmlns="http://www.w3.org/2000/svg" width="16" height="16" viewBox="0 0 16 16">
  <path fill-rule="evenodd" d="M12,0 C14.209139,0 16,1.790861 16,4 L16,12 C16,14.209139 14.209139,16 12,16 L4,16 C1.790861,16 0,14.209139 0,12 L0,4 C0,1.790861 1.790861,0 4,0 L12,0 Z M12,1.5 L4,1.5 C2.6745166,1.5 1.58996133,2.53153594 1.50531768,3.83562431 L1.5,4 L1.5,12 C1.5,13.3254834 2.53153594,14.4100387 3.83562431,14.4946823 L4,14.5 L12,14.5 C13.3254834,14.5 14.4100387,13.4684641 14.4946823,12.1643757 L14.5,12 L14.5,4 C14.5,2.6745166 13.4684641,1.58996133 12.1643757,1.50531768 L12,1.5 Z M10.9250831,5.1 C11.1279856,5.1 11.3200496,5.18316802 11.4623047,5.33227458 C11.7525636,5.63629343 11.7525641,6.1263988 11.4623064,6.43052293 L11.4623064,6.43052293 L7.4203459,10.6641566 C7.27798467,10.8132666 7.08594589,10.8964312 6.8831243,10.8964312 C6.68025643,10.8964312 6.48821394,10.8132752 6.34584446,10.6641566 L6.34584446,10.6641566 L4.54773898,8.78081043 C4.40753796,8.63375103 4.32999918,8.43812693 4.32999918,8.23238638 C4.32969966,8.02593329 4.4072917,7.82982893 4.54966226,7.6808165 L4.54966226,7.6808165 L4.60910837,7.62508342 C4.90902159,7.37287745 5.34861918,7.3961904 5.62227203,7.68271559 L5.62227203,7.68271559 L6.81864372,8.93492756 C6.83737174,8.95091981 6.85970854,8.95924199 6.88300783,8.95924199 C6.89839686,8.95924199 6.91340635,8.9556086 6.92102275,8.95228771 L6.92102275,8.95228771 L6.94999033,8.93273933 L10.3878033,5.33227458 C10.5301727,5.18315597 10.7222152,5.1 10.9250831,5.1 Z"/>
</svg>
